<svg width="519" height="182" viewBox="0 0 519 182" fill="none" xmlns="http://www.w3.org/2000/svg">
<circle cx="110" cy="116.267" r="65" fill="#3DA9FC"/>
<circle cx="106.833" cy="99.8" r="52" fill="white"/>
<path d="M14.442 87.3555C12.4193 92.1496 16.1119 107.458 50.4843 123.715C78.2051 136.827 101.452 140.777 100.029 129.399C98.0406 113.494 77.5195 100.582 74.9524 96.4232C70.7184 89.5612 71.9027 92.2737 69.8047 79.3688C67.6066 65.858 56.5183 66.6983 53.027 69.9979C48.1626 74.5953 43.862 79.8639 36.4546 81.9566C26.2806 84.8303 16.9644 81.3765 14.442 87.3555Z" fill="#2B6C9D"/>
<path d="M39.4089 78.6425C33.2748 82.0901 25.5026 79.6452 21.4372 72.4118C17.3711 65.1772 19.7715 57.3295 25.9056 53.8819C32.0407 50.4338 39.2083 52.1724 43.2743 59.4069C47.3403 66.6414 45.543 75.1949 39.4089 78.6425Z" fill="#2B6C9D"/>
<path d="M112.697 31.898C117.791 32.6918 128.894 43.8353 125.19 81.4925C122.204 111.863 113.724 133.644 104.799 126.483C92.3233 116.472 91.8157 92.3117 89.5951 87.958C85.9305 80.776 87.6281 83.2001 77.7521 74.6666C67.4131 65.7312 73.768 56.7679 78.3427 55.5342C84.7167 53.8153 91.373 52.9258 96.9169 47.7393C104.531 40.6157 106.343 30.9076 112.697 31.898Z" fill="#3DA9FC"/>
<path d="M92.6032 48.5101C98.6482 45.1126 100.53 37.242 96.4644 30.0086C92.3984 22.774 84.5219 20.7022 78.4769 24.0997C72.431 27.4976 70.2581 34.4858 74.3241 41.7204C78.3901 48.9549 86.5582 51.9076 92.6032 48.5101Z" fill="#3DA9FC"/>
<path d="M183.793 24.1192C188.047 28.3868 192.205 48.3925 168.352 88.7717C149.117 121.339 129.769 140.921 125.451 126.883C119.416 107.258 131.792 79.0342 132.115 72.6164C132.645 62.0284 132.889 65.9063 128.442 49.6791C123.788 32.689 134.497 26.6926 139.373 28.3109C146.167 30.5656 152.77 33.9501 160.684 31.7133C171.552 28.6406 178.489 18.7966 183.793 24.1192Z" fill="#2B6EA1"/>
<path d="M156.299 29.7405C163.702 29.8691 169.673 24.015 169.818 15.6941C169.962 7.37182 163.815 1.58216 156.412 1.45356C149.008 1.32494 143.243 6.26779 143.098 14.59C142.954 22.9122 148.896 29.6119 156.299 29.7405Z" fill="#2B6EA1"/>
<path d="M252.624 83V40.312H243.472V57.08H223.312V40.312H214.224V83H223.312V65.08H243.472V83H252.624ZM270.125 83V40.312H261.036V83H270.125ZM291.655 70.968V64.056H276.295V70.968H291.655ZM344.059 83V40.312H331.259L320.891 66.104L310.523 40.312H297.786V83H306.875V53.112L318.907 83H322.875L334.907 53.112V83H344.059ZM392.345 83L375.897 40.312H364.505L347.992 83H358.361L361.049 75.768H379.353L381.977 83H392.345ZM376.857 67.768H363.545L370.201 49.4L376.857 67.768ZM430.847 83L421.247 66.744C425.854 65.656 430.591 61.624 430.591 54.072C430.591 46.136 425.151 40.312 416.255 40.312H396.286V83H405.375V67.832H412.031L420.415 83H430.847ZM414.911 59.832H405.375V48.312H414.911C418.559 48.312 421.311 50.488 421.311 54.072C421.311 57.656 418.559 59.832 414.911 59.832ZM473.956 83L455.844 60.344L472.804 40.312H461.604L446.5 59.384V40.312H437.411V83H446.5V69.88L449.828 65.912L462.756 83H473.956Z" fill="#094067"/>
<path d="M254.032 154L237.584 111.312H226.192L209.68 154H220.048L222.736 146.768H241.04L243.664 154H254.032ZM238.544 138.768H225.232L231.888 120.4L238.544 138.768ZM276.459 154.768C285.867 154.768 291.243 149.584 294.315 144.272L286.507 140.496C284.715 144.016 280.875 146.704 276.459 146.704C268.715 146.704 263.083 140.752 263.083 132.688C263.083 124.624 268.715 118.672 276.459 118.672C280.875 118.672 284.715 121.424 286.507 124.88L294.315 121.04C291.307 115.728 285.867 110.608 276.459 110.608C263.659 110.608 253.739 119.568 253.739 132.688C253.739 145.808 263.659 154.768 276.459 154.768ZM339.095 154L322.647 111.312H311.255L294.742 154H305.111L307.799 146.768H326.103L328.727 154H339.095ZM323.607 138.768H310.295L316.951 120.4L323.607 138.768ZM359.869 154C373.245 154 382.525 145.552 382.525 132.688C382.525 119.824 373.245 111.312 359.869 111.312H343.036V154H359.869ZM359.869 146H352.125V119.312H359.869C368.637 119.312 373.245 125.136 373.245 132.688C373.245 139.92 368.317 146 359.869 146ZM419.182 154V146H398.062V136.336H418.734V128.336H398.062V119.312H419.182V111.312H388.974V154H419.182ZM472.559 154V111.312H459.759L449.391 137.104L439.023 111.312H426.286V154H435.375V124.112L447.407 154H451.375L463.407 124.112V154H472.559ZM502.029 154V136.528L518.349 111.312H507.981L497.485 128.464L486.861 111.312H476.492L492.941 136.528V154H502.029Z" fill="#094067"/>
</svg>
